<svg width="19" height="20" viewBox="0 0 21 22" fill="none" xmlns="http://www.w3.org/2000/svg">
<path fill-rule="evenodd" clip-rule="evenodd" d="M11.6665 15.0227C8.90905 15.773 6.63426 13.955 6.11001 11.8164C5.45975 9.16244 7.2384 6.88653 9.23306 6.37128C15.1338 4.848 17.3073 13.4881 11.6665 15.0227ZM16.3409 17.8476L17.7281 16.5774C16.9529 14.4512 16 15.7798 17.0486 13.3126C17.3456 12.6151 17.1408 12.5611 17.6898 12.1437C18.2467 11.7421 19.0308 11.9199 19.7058 11.5857L19.7351 9.65633L17.4243 8.96444C17.4108 8.93744 17.3726 8.88006 17.3557 8.84744C15.829 5.83239 16.8247 6.5569 17.6302 4.87838L16.3837 3.50023C14.8221 4.00536 15.235 5.07751 13.4395 4.30124C11.4403 3.43835 11.8476 3.93224 11.4876 1.47407L9.45806 1.46957C9.11943 3.76236 9.52894 3.45973 7.62991 4.24387C5.57 5.09438 6.20001 4.13024 4.57098 3.53061L3.23446 4.82438C3.62147 5.68051 4.1806 5.97414 4.43261 6.81791C4.37073 7.06091 3.69009 8.73944 3.54722 8.96782C3.16921 9.57533 2.03294 9.53483 1.23643 9.6912L1.20605 11.7095C2.03744 11.8715 3.16246 11.8321 3.54497 12.4351C3.69909 12.677 4.36173 14.3285 4.43036 14.5828C4.1806 15.4209 3.61584 15.7078 3.28284 16.5234L4.56086 17.878C5.34499 17.5753 5.59812 17.0736 6.50376 16.7406C6.70627 16.7867 8.66155 17.5089 8.78305 17.5888C9.34443 17.9578 9.37031 19.0918 9.48731 19.9075C12.4585 19.9514 11.2075 19.9705 11.8105 18.1345C12.0602 17.3717 12.571 17.4909 13.3124 17.1579C15.262 16.2816 14.7963 17.0927 16.3398 17.8453L16.3409 17.8476Z" fill="#26E7EB"/>
<path fill-rule="evenodd" clip-rule="evenodd" d="M13.3135 17.1602C12.5721 17.4932 12.0613 17.374 11.8116 18.1367C11.2086 19.9739 12.4596 19.9536 9.4884 19.9097C9.37027 19.0941 9.34552 17.9601 8.78414 17.5911C8.66264 17.5112 6.70736 16.7889 6.50485 16.7428C5.60034 17.0758 5.34609 17.5765 4.56195 17.8802L3.28393 16.5257C3.61693 15.7089 4.18169 15.4232 4.43145 14.585C4.36282 14.3308 3.70019 12.6793 3.54606 12.4374C3.16355 11.8332 2.03853 11.8737 1.20715 11.7117L1.23752 9.69346C2.03403 9.53708 3.1703 9.57871 3.54831 8.97007C3.69119 8.74169 4.37182 7.06204 4.4337 6.82016C4.18057 5.9764 3.62143 5.68164 3.23555 4.82663L4.57207 3.53286C6.2011 4.1325 5.57109 5.09664 7.631 4.24612C9.53003 3.46199 9.12052 3.76462 9.45915 1.47183L11.4887 1.47633C11.8487 3.93337 11.4414 3.44061 13.4406 4.3035C15.2361 5.07864 14.8232 4.00762 16.3848 3.50249L17.6313 4.88063C16.8258 6.55916 15.829 5.83465 17.3568 8.8497C17.3736 8.88232 17.4108 8.9397 17.4254 8.9667L19.7362 9.65858L19.7069 11.588C19.0319 11.9221 18.2489 11.7444 17.6909 12.146C17.1419 12.5634 17.3466 12.6174 17.0496 13.3149C16.0011 15.7821 16.954 14.4534 17.7292 16.5797L16.342 17.8498C14.7985 17.0972 15.2642 16.2861 13.3146 17.1624L13.3135 17.1602ZM18.8767 16.8789C19.0916 14.7099 17.0136 15.5244 18.4762 13.1225C19.2727 12.8941 20.2233 12.9661 20.6778 12.3451C21.0491 11.8377 21.0446 10.2177 20.8938 9.52021C20.6981 8.60782 20.0186 8.52907 19.0781 8.34344C18.2568 8.18143 18.4897 8.35356 18.1488 7.70555C17.1903 5.88415 19.1951 6.21715 18.835 4.57238C18.826 4.533 17.1059 1.30083 15.1562 2.76785C14.056 3.59474 14.2821 3.32923 12.9681 2.82298C12.4112 0.894695 12.9726 0.274811 10.565 0.266936C7.51399 0.25681 8.89102 1.10282 7.92125 2.76335C6.4981 3.78712 6.47785 3.19986 5.42934 2.58672C4.22669 1.88134 3.52131 2.96135 2.99142 3.48449C2.28716 4.18087 1.4749 4.63425 2.46492 5.92127C3.21305 6.89441 3.25018 7.16892 2.44354 8.27706C0.428634 8.71582 0.00225251 8.34794 2.47031e-06 10.7015C-0.00112255 13.055 0.381383 12.677 2.44354 13.1349C3.22655 14.1227 3.1433 14.5907 2.45592 15.4715C1.5019 16.6956 2.30966 17.2311 2.98467 17.9252C3.51568 18.472 4.21769 19.5025 5.42596 18.8117C7.00324 17.9095 5.93897 17.833 7.99888 18.571C8.53439 20.2281 8.045 21.1011 10.1994 21.136C13.3056 21.1855 12.1851 20.7501 12.9253 18.8792C13.1008 18.436 13.8501 18.0411 14.4227 18.1131C15.0674 18.1941 15.3396 18.8725 16.0698 19.0041C17.0451 19.1807 18.5785 17.4392 18.8755 16.8778L18.8767 16.8789Z" fill="#0B84A6"/>
<path fill-rule="evenodd" clip-rule="evenodd" d="M11.7407 13.7064C15.892 11.8445 13.1177 6.1204 9.24881 7.63242C5.35962 9.15344 7.5444 15.5897 11.7407 13.7064Z" fill="#FEFEFE"/>
<path fill-rule="evenodd" clip-rule="evenodd" d="M11.7406 13.7064C7.54431 15.5897 5.35952 9.15345 9.24871 7.63242C13.1176 6.1204 15.8908 11.8445 11.7406 13.7064ZM11.6675 15.0227C17.3083 13.4881 15.1348 4.84913 9.23408 6.37128C7.23943 6.88541 5.46078 9.16245 6.11104 11.8164C6.63529 13.955 8.91008 15.7731 11.6675 15.0227Z" fill="#0B84A6"/>
</svg>
