<svg width="20" height="19" viewBox="0 0 24 23" fill="none" xmlns="http://www.w3.org/2000/svg">
<path fill-rule="evenodd" clip-rule="evenodd" d="M13.4325 1.28346C13.0229 0.964831 12.5187 0.79184 11.9998 0.79184C11.4809 0.79184 10.9767 0.964831 10.5671 1.28346L0.785796 8.89013C-0.0915378 9.57496 0.391462 10.9808 1.5033 10.9808H2.7773L3.73396 20.5463C3.79154 21.1221 4.06098 21.6559 4.49 22.0442C4.91902 22.4324 5.477 22.6474 6.05563 22.6475H17.944C18.5226 22.6474 19.0806 22.4324 19.5096 22.0442C19.9386 21.6559 20.2081 21.1221 20.2656 20.5463L21.2223 10.9808H22.4963C23.607 10.9808 24.0923 9.57496 23.2138 8.89129L13.4325 1.28346ZM11.9998 16.8141C12.9281 16.8141 13.8183 16.4454 14.4747 15.789C15.131 15.1326 15.4998 14.2424 15.4998 13.3141C15.4998 12.3859 15.131 11.4956 14.4747 10.8393C13.8183 10.1829 12.9281 9.81413 11.9998 9.81413C11.0715 9.81413 10.1813 10.1829 9.52492 10.8393C8.86854 11.4956 8.4998 12.3859 8.4998 13.3141C8.4998 14.2424 8.86854 15.1326 9.52492 15.789C10.1813 16.4454 11.0715 16.8141 11.9998 16.8141Z" fill="#007DA1"/>
</svg>
