<svg width="20" height="20" viewBox="0 0 24 24" fill="none" xmlns="http://www.w3.org/2000/svg">
<path fill-rule="evenodd" clip-rule="evenodd" d="M4.01221 12.0774H16.4626V21.3607C16.4626 22.3428 15.6759 23.1458 14.7137 23.1458H5.76115C4.79892 23.1458 4.01221 22.3428 4.01221 21.3607V12.0774Z" fill="#AFF9F7" stroke="#007DA1" stroke-width="0.960004" stroke-miterlimit="2.61313"/>
<path fill-rule="evenodd" clip-rule="evenodd" d="M10.1642 15.7669C11.228 15.7669 12.0978 16.6547 12.0978 17.7405V23.1458H8.23047V17.7405C8.23047 16.6547 9.10032 15.7669 10.1642 15.7669Z" fill="#26E7EB"/>
<path d="M10.1626 15.7669H10.1642M10.1642 15.7669C11.228 15.7669 12.0978 16.6547 12.0978 17.7405V23.1458H8.23047V17.7405C8.23047 16.6547 9.10032 15.7669 10.1642 15.7669Z" stroke="#007DA1" stroke-width="0.960004" stroke-miterlimit="2.61313"/>
<path fill-rule="evenodd" clip-rule="evenodd" d="M18.8946 1.14746H20.4341C21.8459 1.14746 23.0006 2.32595 23.0006 3.76685V20.5281C23.0006 21.969 21.8459 23.1475 20.4341 23.1475H16.3281V3.76842C16.3281 2.32752 17.4828 1.14903 18.8946 1.14903V1.14746Z" fill="#13E4EA" stroke="#007DA1" stroke-width="0.960004" stroke-miterlimit="2.61313"/>
<path fill-rule="evenodd" clip-rule="evenodd" d="M7.42612 3.89746H13.0501L19.4763 10.4546V12.095H1V10.4546L7.42612 3.89746Z" fill="#13E4EA" stroke="#007DA1" stroke-width="0.960004" stroke-miterlimit="2.61313"/>
<path d="M17.6504 6.38304H22.7787" stroke="#007DA1" stroke-width="1.60033" stroke-miterlimit="2.61313"/>
<path d="M16.1069 17.9055H22.7794" stroke="#007DA1" stroke-width="1.60033" stroke-miterlimit="2.61313"/>
</svg>
