<svg width="18" height="20" viewBox="0 0 24 26" fill="none" xmlns="http://www.w3.org/2000/svg">
<path d="M9.84597 15.5549V15.5549C9.84511 15.375 9.78705 15.202 9.68293 15.0621C9.68293 15.0621 9.68292 15.0621 9.68292 15.0621L7.10727 11.6033L7.10726 11.6033C6.8396 11.2439 6.36705 11.1727 6.04537 11.4026C5.67764 11.6654 5.59525 12.1981 5.8705 12.5678L7.41281 14.6389C7.7495 15.0909 7.8792 15.6673 7.77271 16.2216L7.77271 16.2216C7.62963 16.9664 6.72708 17.3027 6.14767 16.7677L3.21225 14.0577L3.21223 14.0576C2.51047 13.4097 2.13542 12.4732 2.18584 11.5122L2.18585 11.5121L2.49555 5.61486C2.49555 5.61486 2.49555 5.61486 2.49555 5.61486C2.51967 5.15542 2.17925 4.78692 1.76702 4.76388L9.84597 15.5549ZM9.84597 15.5549L9.86359 19.198C9.86945 20.4113 10.0152 21.6196 10.2979 22.7977L10.685 24.4112L10.685 24.4112M9.84597 15.5549L10.685 24.4112M10.685 24.4112C10.76 24.7238 10.6533 25.0543 10.4056 25.257C10.272 25.3663 10.0935 25.4272 9.89936 25.4272H7.11269C6.76437 25.4272 6.44583 25.1814 6.35651 24.8092L6.11492 23.8024C6.11492 23.8024 6.11492 23.8024 6.11491 23.8024C5.87285 22.7933 5.45326 21.8377 4.87635 20.9828L0.641537 14.7075C0.541727 14.5596 0.49162 14.3799 0.501146 14.1969C0.501148 14.1968 0.501151 14.1968 0.501154 14.1967L0.956468 5.52621L10.685 24.4112ZM0.956471 5.52615C0.980616 5.06786 1.35544 4.74126 1.76682 4.76387L0.956471 5.52615Z" fill="#26E7EB" stroke="#007DA1"/>
<path d="M13.7023 22.7977L13.7023 22.7978L13.315 24.4111C13.24 24.7236 13.3468 25.0542 13.5946 25.2569C13.7282 25.3661 13.9066 25.427 14.1007 25.427H16.8874C17.2357 25.427 17.5542 25.1812 17.6436 24.8091L17.8852 23.8022L18.3714 23.9189L17.8852 23.8022C18.1273 22.7931 18.5469 21.8375 19.1238 20.9827L23.3586 14.7073C23.4584 14.5594 23.5085 14.3798 23.499 14.1967L13.7023 22.7977ZM13.7023 22.7977C13.985 21.6196 14.1307 20.4113 14.1366 19.198L14.1542 15.5549L14.1542 15.5549C14.155 15.375 14.2131 15.202 14.3172 15.0622L14.3173 15.0621L16.893 11.6033L16.893 11.6033C17.1606 11.2439 17.6331 11.1727 17.9549 11.4025L13.7023 22.7977ZM18.1298 12.5678C18.4051 12.1981 18.3227 11.6654 17.955 11.4026L18.1298 12.5678ZM18.1298 12.5678L16.5875 14.6389C16.2508 15.0909 16.1211 15.6673 16.2277 16.2216C16.3708 16.9664 17.2733 17.3027 17.8527 16.7677L17.8528 16.7677L20.7879 14.0575C20.7879 14.0575 20.7879 14.0575 20.7879 14.0575C21.4897 13.4095 21.8647 12.473 21.8143 11.512L21.8143 11.512L21.5046 5.61467C21.4805 5.15524 21.8209 4.78673 22.2331 4.7637L18.1298 12.5678ZM23.0437 5.52602L23.499 14.1966L22.2333 4.76369C22.6447 4.74108 23.0195 5.06768 23.0437 5.52597C23.0437 5.52599 23.0437 5.526 23.0437 5.52602Z" fill="#26E7EB" stroke="#007DA1"/>
<path d="M10.8141 0.575442L10.8141 0.57544C10.4398 0.393254 9.98185 0.551575 9.7952 0.957717L10.8141 0.575442ZM10.8141 0.575442L15.8659 3.03405C16.2484 3.22025 16.4258 3.70356 16.2359 4.11711C16.2359 4.11712 16.2358 4.11713 16.2358 4.11714L13.8469 9.31624C13.7118 9.60994 13.4336 9.77408 13.1516 9.77408C13.0441 9.77408 12.9342 9.7504 12.828 9.6987L12.828 9.69869L7.77618 7.23998C7.77617 7.23998 7.77616 7.23997 7.77616 7.23997C7.39361 7.05375 7.21619 6.57046 7.40616 6.15693C7.40616 6.15692 7.40617 6.15691 7.40617 6.1569L9.79519 0.957738L10.8141 0.575442Z" fill="#AFF9F7" stroke="#007DA1"/>
</svg>
