<svg width="24" height="22" viewBox="0 0 24 22" fill="none" xmlns="http://www.w3.org/2000/svg">
<path d="M15.39 7.87823C17.1633 7.87823 18.6008 6.4407 18.6008 4.66743C18.6008 2.89415 17.1633 1.45663 15.39 1.45663C13.6167 1.45663 12.1792 2.89415 12.1792 4.66743C12.1792 6.4407 13.6167 7.87823 15.39 7.87823Z" fill="#AFF9F7" stroke="#007DA1" stroke-width="1.27969" stroke-miterlimit="2.61313"/>
<path d="M6.61946 19.1036C9.72301 19.1036 12.2389 16.5877 12.2389 13.4842C12.2389 10.3806 9.72301 7.86472 6.61946 7.86472C3.51592 7.86472 1 10.3806 1 13.4842C1 16.5877 3.51592 19.1036 6.61946 19.1036Z" fill="#13E4EA" stroke="#007DA1" stroke-width="1.27969" stroke-miterlimit="2.61313"/>
<path d="M19.1114 20.9577C21.4396 20.9577 23.3269 19.0704 23.3269 16.7422C23.3269 14.4141 21.4396 12.5268 19.1114 12.5268C16.7833 12.5268 14.896 14.4141 14.896 16.7422C14.896 19.0704 16.7833 20.9577 19.1114 20.9577Z" fill="#13E4EA" stroke="#007DA1" stroke-width="1.27969" stroke-miterlimit="2.61313"/>
</svg>